<svg xmlns="http://www.w3.org/2000/svg" viewBox="0 0 100 100">
  <circle cx="50" cy="50" r="45" fill="#3b82f6"/>
  <path d="M65 55c-2.5 2.5-5.5 4.5-8.5 6-0.5 0.2-1 0.3-1.5 0.3-0.7 0-1.4-0.2-2-0.6-2.5-1.5-5-3.2-7.3-5.2-2.3-2-4.3-4.2-6-6.7-0.8-1.2-0.8-2.7 0.1-3.9 1.5-2 3.5-4 6-6.5 1-1 1-2.5 0-3.5l-7-7c-1-1-2.5-1-3.5 0l-2.5 2.5c-4.5 4.5-6 11-4 17 2.5 7.5 7 14.5 13.5 20.5 6 5.5 13.5 10 21 12.5 2 0.5 4 0.8 6 0.8 4.2 0 8.2-1.5 11-4.5l2.5-2.5c1-1 1-2.5 0-3.5l-7-7c-0.5-0.5-1.2-0.8-1.8-0.8-0.6 0-1.2 0.3-1.7 0.8z" fill="white" transform="translate(10, -5) scale(0.85)"/>
</svg>
